<svg xmlns="http://www.w3.org/2000/svg" width="410" height="404" viewBox="0 0 410 404"><defs><linearGradient id="vite-gradient" x1="0%" y1="0%" x2="100%" y2="100%"><stop offset="0%" stop-color="#41D1FF"/><stop offset="50%" stop-color="#BD34FE"/><stop offset="100%" stop-color="#FFA800"/></linearGradient></defs><g fill="none" fill-rule="evenodd"><path d="M399.84 55.5 215.83 388.39c-3.95 7.25-14.72 7.23-18.65-.04L10.08 55.5c-4.24-7.8 2.1-17.34 10.75-15.65l183.2 36.8a10 10 0 0 0 3.83 0l181.17-36.76c8.63-1.75 15.1 7.8 10.86 15.6Z" fill="#0f172a"/><path d="M292.78 80.22 190.68 280.42c-2.47 4.84-9.5 4.87-12.02.05L110.2 178.55c-2.46-4.74.81-10.5 6.13-10.53l57.97-.31a6 6 0 0 0 5.32-3.2l47.56-94.7c2.8-5.58 10.88-5.42 13.42.29l16 35.64a6 6 0 0 0 5.33 3.48l27.07-.4c5.2-.07 8.5 5.5 6.13 10.27Z" fill="url(#vite-gradient)"/></g></svg>
